<?xml version="1.0" encoding="UTF-8"?>
<svg width="3010px" height="564px" viewBox="0 0 3010 564" version="1.1" xmlns="http://www.w3.org/2000/svg" xmlns:xlink="http://www.w3.org/1999/xlink">
    <!-- Generator: Sketch 61 (89581) - https://sketch.com -->
    <title>Untitled 2</title>
    <desc>Created with Sketch.</desc>
    <g id="Page-1" stroke="none" stroke-width="1" fill="none" fill-rule="evenodd">
        <g id="Black-logo---no-background">
            <g id="SvgjsG2334" transform="translate(0.916805, 0.916805)" fill="#000000" fill-rule="nonzero">
                <path d="M280.782036,0 C125.958977,0 0,125.958977 0,280.782036 C0,435.605095 125.958977,561.564072 280.782036,561.564072 C435.605095,561.564072 561.564072,435.605095 561.564072,280.782036 C561.564072,125.958977 435.605095,0 280.782036,0 Z M280.782036,547.560539 C133.680525,547.560539 14.0035328,427.883547 14.0035328,280.782036 C14.0035328,133.680525 133.680525,14.0035328 280.782036,14.0035328 C427.883547,14.0035328 547.560539,133.677724 547.560539,280.782036 C547.560539,427.886348 427.883547,547.560539 280.782036,547.560539 Z" id="Shape"></path>
            </g>
            <g id="SvgjsG2335" transform="translate(105.742405, 101.771448)" fill="#2257BF">
                <g id="Group" transform="translate(0.000000, 2.532559)">
                    <path d="M29.9418194,219.052714 C13.4189188,219.052714 -0.000307725227,232.521946 -0.000307725227,249.10774 C-0.000307725227,265.693534 13.4189188,279.304519 29.9418194,279.304519 C33.1721123,279.304519 36.3503501,278.764114 39.4047791,277.744848 C88.1687132,352.788906 184.928404,370.105299 255.778206,329.490334 C257.847792,328.302713 258.655366,325.33108 257.472141,323.252446 C256.288919,321.174209 253.328757,320.363799 251.257767,321.55142 C184.658273,359.730393 93.7373129,343.902992 47.4551926,273.491887 C54.9765967,268.007628 59.8839445,259.120126 59.8839445,249.10774 C59.8839445,232.521946 46.4661241,219.052714 29.9418194,219.052714 Z" id="Path"></path>
                    <path d="M255.778206,49.9229187 C252.002029,50.4046377 250.865232,56.6343463 254.224964,58.4290395 C307.550141,91.0637564 337.324844,154.923015 324.277044,219.47797 C322.716766,219.211936 321.09318,219.053111 319.475216,219.053111 C302.952321,219.053111 289.533091,232.522343 289.533091,249.10774 C289.533091,265.693534 302.952321,279.304519 319.475216,279.304519 C335.998115,279.304519 349.417341,265.693534 349.417341,249.10774 C349.417341,237.387975 342.718985,227.229469 332.893036,222.313807 C347.216915,153.657053 315.694818,85.398396 258.8861,50.631997 C258.131991,50.150675 257.234374,49.9004845 256.342384,49.9231569 C256.152428,49.9112449 255.96815,49.9112449 255.778206,49.9231569 L255.778206,49.9229187 Z" id="Path"></path>
                    <path d="M174.70852,1.43808932 C158.776529,1.43808932 145.824398,14.0245276 144.908492,29.7918123 C76.6249155,42.4725534 26.8705072,96.7077944 15.5363383,161.069419 C15.182296,162.697525 15.7459267,164.389417 17.0044198,165.476268 C18.2629129,166.563119 20.0136957,166.869984 21.564661,166.275556 C23.1156262,165.681128 24.2171235,164.281088 24.4337165,162.628891 C35.0799015,102.17633 81.5646201,51.1694639 145.613362,38.8649814 C148.89571,51.9101089 160.712454,61.5479439 174.70852,61.5479439 C191.231415,61.5479439 204.650645,48.0787512 204.650645,31.4929967 C204.650645,14.907282 191.231415,1.43808932 174.70852,1.43808932 L174.70852,1.43808932 Z" id="Path"></path>
                </g>
            </g>
            <g id="SvgjsG2336" transform="translate(659.846214, 115.808182)" fill="#000000" fill-rule="nonzero">
                <path d="M154.880001,16.5470087 C158.189403,16.5470087 159.844104,18.2017096 159.844104,21.5111113 L159.844104,243.241028 C159.844104,246.550429 158.189403,248.20513 154.880001,248.20513 L125.757266,248.20513 C123.109745,248.20513 121.124104,247.21231 119.800343,244.564788 L33.7558977,58.5764107 L33.7558977,243.241028 C33.7558977,246.550429 32.1011968,248.20513 28.7917951,248.20513 L9.92820521,248.20513 C6.61880347,248.20513 4.96410261,246.550429 4.96410261,243.241028 L4.96410261,21.5111113 C4.96410261,18.2017096 6.61880347,16.5470087 9.92820521,16.5470087 L39.0509405,16.5470087 C41.6984619,16.5470087 43.6841029,17.5398292 45.0078636,20.1873506 L131.052309,205.844788 L131.052309,21.5111113 C131.052309,18.2017096 132.70701,16.5470087 136.016411,16.5470087 L154.880001,16.5470087 L154.880001,16.5470087 Z M270.378122,81.4112827 C306.450601,81.4112827 328.954533,104.246155 328.954533,141.642394 L328.954533,189.95966 C328.954533,226.694019 306.450601,249.859831 270.378122,249.859831 L254.823934,249.859831 C219.082395,249.859831 196.247523,226.694019 196.247523,189.95966 L196.247523,141.642394 C196.247523,104.246155 219.082395,81.4112827 254.823934,81.4112827 L270.378122,81.4112827 L270.378122,81.4112827 Z M301.155558,192.607181 L301.155558,138.994873 C301.155558,117.152821 289.572652,106.893676 270.378122,106.893676 L254.823934,106.893676 C235.629404,106.893676 224.377438,117.152821 224.377438,138.994873 L224.377438,192.607181 C224.377438,213.456412 235.629404,224.046498 254.823934,224.046498 L270.378122,224.046498 C289.572652,224.046498 301.155558,213.456412 301.155558,192.607181 Z M355.760687,88.0300862 C354.767866,85.0516246 356.091627,82.7350434 359.401029,82.7350434 L378.264619,82.7350434 C381.57402,82.7350434 382.897781,85.0516246 383.890601,88.0300862 L421.948721,214.449233 L460.006841,88.0300862 C460.999662,85.0516246 462.323423,82.7350434 465.632824,82.7350434 L484.496414,82.7350434 C487.805816,82.7350434 489.129577,85.0516246 488.136756,88.0300862 L436.841029,242.248207 C435.186328,246.550429 433.200687,248.20513 429.560345,248.20513 L414.668038,248.20513 C410.696756,248.20513 408.711115,246.550429 407.387354,242.248207 L355.760687,88.0300862 Z M589.073509,81.4112827 C625.145988,81.4112827 647.64992,104.246155 647.64992,141.642394 L647.64992,189.95966 C647.64992,226.694019 625.145988,249.859831 589.073509,249.859831 L573.519321,249.859831 C537.777782,249.859831 514.94291,226.694019 514.94291,189.95966 L514.94291,141.642394 C514.94291,104.246155 537.777782,81.4112827 573.519321,81.4112827 L589.073509,81.4112827 L589.073509,81.4112827 Z M619.850945,192.607181 L619.850945,138.994873 C619.850945,117.152821 608.268039,106.893676 589.073509,106.893676 L573.519321,106.893676 C554.324791,106.893676 543.072825,117.152821 543.072825,138.994873 L543.072825,192.607181 C543.072825,213.456412 554.324791,224.046498 573.519321,224.046498 L589.073509,224.046498 C608.268039,224.046498 619.850945,213.456412 619.850945,192.607181 Z M932.92035,177.714873 C936.560692,177.714873 938.546333,179.700514 938.546333,183.340856 C936.560692,227.024959 914.05676,249.859831 872.027358,249.859831 L846.544964,249.859831 C802.860861,249.859831 780.025989,225.039318 780.025989,181.024275 L780.025989,83.7278639 C780.025989,39.7128208 802.860861,14.8923078 846.544964,14.8923078 L872.027358,14.8923078 C914.05676,14.8923078 936.560692,37.7271798 938.546333,81.4112827 C938.546333,85.0516246 936.560692,87.0372657 932.92035,87.0372657 L915.711461,87.0372657 C912.071119,87.0372657 909.754537,85.0516246 909.754537,81.4112827 C908.430777,51.9576073 897.178811,41.0365815 872.027358,41.0365815 L846.544964,41.0365815 C819.73881,41.0365815 808.817785,53.281368 808.817785,83.7278639 L808.817785,181.024275 C808.817785,211.470771 819.73881,223.715557 846.544964,223.715557 L872.027358,223.715557 C897.178811,223.715557 908.430777,212.794532 909.754537,183.340856 C909.754537,179.700514 912.071119,177.714873 915.711461,177.714873 L932.92035,177.714873 Z M1045.77095,81.4112827 C1081.84343,81.4112827 1104.34736,104.246155 1104.34736,141.642394 L1104.34736,189.95966 C1104.34736,226.694019 1081.84343,249.859831 1045.77095,249.859831 L1030.21676,249.859831 C994.475222,249.859831 971.64035,226.694019 971.64035,189.95966 L971.64035,141.642394 C971.64035,104.246155 994.475222,81.4112827 1030.21676,81.4112827 L1045.77095,81.4112827 L1045.77095,81.4112827 Z M1076.54839,192.607181 L1076.54839,138.994873 C1076.54839,117.152821 1064.96548,106.893676 1045.77095,106.893676 L1030.21676,106.893676 C1011.02223,106.893676 999.770265,117.152821 999.770265,138.994873 L999.770265,192.607181 C999.770265,213.456412 1011.02223,224.046498 1030.21676,224.046498 L1045.77095,224.046498 C1064.96548,224.046498 1076.54839,213.456412 1076.54839,192.607181 Z M1216.86702,81.4112827 C1254.5942,81.4112827 1267.50087,103.253334 1267.50087,139.987693 L1267.50087,243.241028 C1267.50087,246.550429 1265.84616,248.20513 1262.53676,248.20513 L1244.33505,248.20513 C1241.02565,248.20513 1239.37095,246.550429 1239.37095,243.241028 L1239.37095,138.332993 C1239.37095,117.152821 1232.09027,106.893676 1211.57198,106.893676 L1206.60787,106.893676 C1184.76582,106.893676 1171.52821,119.138463 1167.22599,126.750087 L1167.22599,243.241028 C1167.22599,246.550429 1165.57129,248.20513 1162.26189,248.20513 L1144.06018,248.20513 C1140.75078,248.20513 1139.09608,246.550429 1139.09608,243.241028 L1139.09608,87.699146 C1139.09608,84.3897443 1140.75078,82.7350434 1144.06018,82.7350434 L1162.26189,82.7350434 C1165.57129,82.7350434 1167.22599,84.3897443 1167.22599,87.699146 L1167.22599,105.900856 C1176.49232,91.6704281 1192.37745,81.4112827 1214.2195,81.4112827 L1216.86702,81.4112827 L1216.86702,81.4112827 Z M1374.39454,108.217437 L1348.91215,108.217437 L1348.91215,197.571284 C1348.91215,216.103933 1354.86907,222.722737 1373.40172,223.384617 C1377.373,223.384617 1379.0277,226.032139 1378.69676,229.672481 L1378.36582,243.241028 C1378.03488,246.88137 1375.7183,248.867011 1371.74702,248.867011 C1332.36514,248.53607 1320.78223,231.658122 1320.78223,197.240344 L1320.78223,108.217437 L1303.90428,108.217437 C1300.59488,108.217437 1298.94018,106.562736 1298.94018,103.253334 L1298.94018,88.0300862 C1298.94018,84.3897443 1300.59488,82.7350434 1303.90428,82.7350434 L1320.78223,82.7350434 L1320.78223,62.5476928 C1320.78223,59.2382911 1322.43693,57.5835902 1325.74634,57.5835902 L1343.94805,57.5835902 C1347.25745,57.5835902 1348.91215,59.2382911 1348.91215,62.5476928 L1348.91215,82.7350434 L1374.0636,82.7350434 C1377.70394,82.7350434 1379.35864,84.3897443 1379.35864,87.699146 L1379.35864,103.253334 C1379.35864,106.562736 1377.373,108.217437 1374.39454,108.217437 L1374.39454,108.217437 Z M1508.42531,106.893676 C1507.10155,109.872138 1504.45403,110.534018 1501.14463,109.541197 C1496.18053,107.886497 1490.55454,106.893676 1483.93574,106.893676 L1479.96446,106.893676 C1458.12241,106.893676 1444.8848,119.138463 1440.58258,126.750087 L1440.58258,243.241028 C1440.58258,246.550429 1438.92788,248.20513 1435.61847,248.20513 L1417.41676,248.20513 C1414.10736,248.20513 1412.45266,246.550429 1412.45266,243.241028 L1412.45266,87.699146 C1412.45266,84.3897443 1414.10736,82.7350434 1417.41676,82.7350434 L1435.61847,82.7350434 C1438.92788,82.7350434 1440.58258,84.3897443 1440.58258,87.699146 L1440.58258,105.900856 C1451.17266,89.3538469 1468.71249,81.4112827 1490.2236,81.4112827 C1498.82805,81.4112827 1506.43967,82.7350434 1513.05847,85.3825648 C1516.36788,87.0372657 1517.02976,89.3538469 1515.37506,92.9941888 L1508.42531,106.893676 Z M1669.92412,245.226669 C1670.25506,246.550429 1670.586,248.20513 1668.9313,248.20513 L1646.7583,248.20513 C1643.11796,248.20513 1641.46326,244.895729 1641.46326,240.262566 L1641.46326,225.039318 C1632.52788,238.938805 1619.95215,249.859831 1599.43386,249.859831 L1587.18907,249.859831 C1556.74258,249.859831 1536.22429,231.989062 1536.22429,199.225985 C1536.22429,166.131967 1554.75694,151.239659 1586.52719,151.239659 L1641.46326,151.239659 L1641.46326,138.994873 C1641.46326,113.84342 1634.18258,106.893676 1610.68583,106.893676 L1602.74326,106.893676 C1585.53437,106.893676 1573.28959,110.534018 1564.3542,115.16718 C1560.05198,116.821881 1556.74258,117.152821 1555.08788,113.51248 L1549.46189,100.936753 C1548.46907,98.2892316 1548.46907,96.3035905 1551.77847,94.3179495 C1565.34702,85.713505 1584.54155,81.4112827 1602.74326,81.4112827 L1610.68583,81.4112827 C1651.72241,81.4112827 1669.26224,99.9439325 1669.26224,139.987693 L1669.26224,240.262566 C1669.26224,241.917267 1669.59318,243.902908 1669.92412,245.226669 L1669.92412,245.226669 Z M1603.0742,224.046498 C1625.24719,224.046498 1635.83728,213.456412 1641.46326,199.556925 L1641.46326,174.074531 L1587.18907,174.074531 C1572.95865,174.074531 1564.02326,180.031454 1564.02326,198.895044 C1564.02326,217.427694 1572.95865,224.046498 1587.18907,224.046498 L1603.0742,224.046498 L1603.0742,224.046498 Z M1809.58087,136.347352 C1806.27147,136.347352 1804.28583,134.361711 1803.95489,130.721369 C1800.97643,114.5053 1791.04822,107.224616 1776.81779,107.224616 L1762.91831,107.224616 C1743.39284,107.224616 1732.14087,117.483762 1732.14087,139.325813 L1732.14087,193.600002 C1732.14087,213.456412 1743.39284,224.046498 1762.91831,224.046498 L1776.48685,224.046498 C1795.35044,224.046498 1800.97643,217.096754 1809.24993,207.168549 C1811.56651,204.521027 1814.21403,204.521027 1817.19249,206.506668 L1828.11352,214.449233 C1831.09198,216.434874 1831.09198,218.751455 1829.10634,221.398976 C1817.19249,235.960344 1806.93335,249.859831 1776.48685,249.859831 L1762.91831,249.859831 C1726.84583,249.859831 1703.34907,225.039318 1703.34907,188.966839 L1703.34907,141.642394 C1703.34907,104.577095 1726.84583,81.7422229 1762.91831,81.7422229 L1776.81779,81.7422229 C1806.60241,81.7422229 1827.78258,100.274873 1832.0848,130.390428 C1832.41574,134.361711 1830.4301,136.347352 1826.78976,136.347352 L1809.58087,136.347352 L1809.58087,136.347352 Z M1932.69061,108.217437 L1907.20822,108.217437 L1907.20822,197.571284 C1907.20822,216.103933 1913.16514,222.722737 1931.69779,223.384617 C1935.66908,223.384617 1937.32378,226.032139 1936.99284,229.672481 L1936.6619,243.241028 C1936.33096,246.88137 1934.01438,248.867011 1930.04309,248.867011 C1890.66121,248.53607 1879.07831,231.658122 1879.07831,197.240344 L1879.07831,108.217437 L1862.20036,108.217437 C1858.89096,108.217437 1857.23625,106.562736 1857.23625,103.253334 L1857.23625,88.0300862 C1857.23625,84.3897443 1858.89096,82.7350434 1862.20036,82.7350434 L1879.07831,82.7350434 L1879.07831,62.5476928 C1879.07831,59.2382911 1880.73301,57.5835902 1884.04241,57.5835902 L1902.24412,57.5835902 C1905.55352,57.5835902 1907.20822,59.2382911 1907.20822,62.5476928 L1907.20822,82.7350434 L1932.35967,82.7350434 C1936.00002,82.7350434 1937.65472,84.3897443 1937.65472,87.699146 L1937.65472,103.253334 C1937.65472,106.562736 1935.66908,108.217437 1932.69061,108.217437 L1932.69061,108.217437 Z M1974.38908,21.5111113 C1974.38908,18.2017096 1976.04378,16.5470087 1979.35318,16.5470087 L1996.89301,16.5470087 C2000.20241,16.5470087 2001.85711,18.2017096 2001.85711,21.5111113 L2001.85711,39.3818807 C2001.85711,42.6912824 2000.20241,44.3459833 1996.89301,44.3459833 L1979.35318,44.3459833 C1976.04378,44.3459833 1974.38908,42.6912824 1974.38908,39.3818807 L1974.38908,21.5111113 Z M1974.05814,87.699146 C1974.05814,84.3897443 1975.71284,82.7350434 1979.02224,82.7350434 L1997.22395,82.7350434 C2000.53335,82.7350434 2002.18805,84.3897443 2002.18805,87.699146 L2002.18805,243.241028 C2002.18805,246.550429 2000.53335,248.20513 1997.22395,248.20513 L1979.02224,248.20513 C1975.71284,248.20513 1974.05814,246.550429 1974.05814,243.241028 L1974.05814,87.699146 Z M2122.98121,81.4112827 C2160.70839,81.4112827 2173.61506,103.253334 2173.61506,139.987693 L2173.61506,243.241028 C2173.61506,246.550429 2171.96036,248.20513 2168.65096,248.20513 L2150.44925,248.20513 C2147.13985,248.20513 2145.48515,246.550429 2145.48515,243.241028 L2145.48515,138.332993 C2145.48515,117.152821 2138.20446,106.893676 2117.68617,106.893676 L2112.72207,106.893676 C2090.88002,106.893676 2077.64241,119.138463 2073.34019,126.750087 L2073.34019,243.241028 C2073.34019,246.550429 2071.68549,248.20513 2068.37609,248.20513 L2050.17438,248.20513 C2046.86497,248.20513 2045.21027,246.550429 2045.21027,243.241028 L2045.21027,87.699146 C2045.21027,84.3897443 2046.86497,82.7350434 2050.17438,82.7350434 L2068.37609,82.7350434 C2071.68549,82.7350434 2073.34019,84.3897443 2073.34019,87.699146 L2073.34019,105.900856 C2082.60651,91.6704281 2098.49164,81.4112827 2120.33369,81.4112827 L2122.98121,81.4112827 L2122.98121,81.4112827 Z M2337.76139,82.7350434 C2341.07079,82.7350434 2342.72549,84.3897443 2342.72549,87.699146 L2342.72549,256.478635 C2342.72549,295.860515 2319.55968,314.393165 2275.87557,314.393165 C2264.95455,314.393165 2255.35728,314.062225 2244.10532,311.414703 C2241.12686,311.083763 2239.14122,309.098122 2239.14122,306.450601 L2239.14122,290.896413 C2239.14122,288.248891 2241.12686,285.93231 2244.10532,286.59419 C2255.35728,289.241712 2264.95455,289.241712 2275.87557,289.241712 C2301.02703,289.241712 2314.59557,283.946669 2314.59557,256.809575 L2314.59557,228.01778 C2308.30771,240.593506 2296.72481,249.859831 2276.53745,249.859831 L2266.60925,249.859831 C2231.19865,249.859831 2208.36378,226.694019 2208.36378,189.95966 L2208.36378,141.642394 C2208.36378,104.246155 2231.19865,81.4112827 2266.60925,81.4112827 L2276.53745,81.4112827 C2296.72481,81.4112827 2308.30771,89.6847871 2314.59557,101.598633 L2314.59557,87.699146 C2314.59557,84.3897443 2316.58122,82.7350434 2319.55968,82.7350434 L2337.76139,82.7350434 L2337.76139,82.7350434 Z M2284.14908,224.046498 C2303.34361,224.046498 2314.59557,213.456412 2314.59557,192.607181 L2314.59557,138.994873 C2314.59557,117.152821 2303.34361,106.893676 2284.14908,106.893676 L2266.94019,106.893676 C2247.74566,106.893676 2236.49369,117.152821 2236.49369,138.994873 L2236.49369,192.607181 C2236.49369,213.456412 2247.74566,224.046498 2266.94019,224.046498 L2284.14908,224.046498 Z" id="Shape"></path>
            </g>
        </g>
    </g>
</svg>